<svg width="55" height="50" viewBox="0 0 55 50" fill="none" xmlns="http://www.w3.org/2000/svg">
<g clip-path="url(#clip0_10_50)">
<path d="M19.1583 1.37901C18.6644 0.527947 17.7876 0.00633844 16.8405 0H2.75C1.23122 0 0 1.29655 0 2.89593C0 3.44186 0.145162 3.97689 0.419048 4.44042L4.04643 10.053L22.1833 5.91597L19.1583 1.37901Z" fill="#C9F4FF"/>
<path d="M22.2619 6.02631C21.7619 5.17503 20.8815 4.65416 19.931 4.6473H5.89286C4.86394 4.59732 3.8955 5.15991 3.38685 6.10311C2.8782 7.0463 2.91549 8.21035 3.48334 9.1153L7.52976 15.8725L26.2691 12.7835L22.2619 6.02631Z" fill="#51B9FF"/>
<path d="M7.35951 15.5967C6.89914 14.8199 6.80722 13.8621 7.1107 13.0041C7.53164 11.8727 8.57596 11.1358 9.72974 11.1562H23.7678C24.719 11.1605 25.6006 11.682 26.0988 12.5352L38.7095 33.5928C38.9834 34.0563 39.1286 34.5913 39.1286 35.1373C39.1265 35.6829 38.9815 36.2173 38.7095 36.6818L31.6643 48.4447C31.1571 49.2839 30.2779 49.792 29.3333 49.792C28.3887 49.792 27.5096 49.2839 27.0024 48.4447L7.35951 15.5967Z" fill="#007BFC"/>
<path d="M42.8738 22.3262C43.381 23.1654 44.2602 23.6735 45.2048 23.6735C46.1494 23.6735 47.0285 23.1654 47.5357 22.3262L49.9583 18.2857L54.581 10.5632C54.8548 10.0997 55 9.56468 55 9.01875C54.9979 8.47312 54.8529 7.93867 54.581 7.47425L50.9143 1.37901C50.4143 0.527732 49.5338 0.00686281 48.5833 0H34.4929C33.7635 0 33.064 0.305106 32.5483 0.848198C32.0326 1.39129 31.7427 2.12788 31.7427 2.89593C31.7378 3.44456 31.8883 3.98232 32.175 4.44042L42.8738 22.3262Z" fill="#007BFC"/>
</g>
<defs>
<clipPath id="clip0_10_50">
<rect width="55" height="50" fill="white"/>
</clipPath>
</defs>
</svg>
