<svg width="39" height="43" viewBox="0 0 39 43" fill="none" xmlns="http://www.w3.org/2000/svg">
<g clip-path="url(#clip0_9_33)">
<mask id="mask0_9_33" style="mask-type:luminance" maskUnits="userSpaceOnUse" x="0" y="0" width="149" height="43">
<path d="M148.17 0H0V42.71H148.17V0Z" fill="white"/>
</mask>
<g mask="url(#mask0_9_33)">
<path fill-rule="evenodd" clip-rule="evenodd" d="M21 6.85L30.87 12.21L21.75 0C21.0261 0.971454 20.5749 2.11866 20.443 3.32296C20.3112 4.52726 20.5035 5.74492 21 6.85Z" fill="url(#paint0_linear_9_33)"/>
<path fill-rule="evenodd" clip-rule="evenodd" d="M16.54 26.73C16.9842 26.73 17.4184 26.8615 17.7879 27.1078C18.1575 27.3542 18.4459 27.7044 18.6168 28.1144C18.7876 28.5244 18.8333 28.9757 18.7481 29.4116C18.6629 29.8475 18.4506 30.2485 18.1379 30.5639C17.8253 30.8794 17.4262 31.0952 16.9911 31.1843C16.556 31.2733 16.1042 31.2316 15.6927 31.0644C15.2813 30.8972 14.9285 30.6119 14.6789 30.2445C14.4293 29.8771 14.294 29.4441 14.29 29C14.2874 28.7028 14.3436 28.4081 14.4555 28.1328C14.5674 27.8575 14.7327 27.6071 14.9419 27.396C15.1511 27.185 15.4 27.0175 15.6743 26.9031C15.9486 26.7888 16.2428 26.73 16.54 26.73Z" fill="url(#paint1_linear_9_33)"/>
<path fill-rule="evenodd" clip-rule="evenodd" d="M9.67001 1.78998L37.31 16.79C37.536 16.8999 37.7266 17.0712 37.8599 17.2843C37.9932 17.4974 38.0639 17.7436 38.0639 17.995C38.0639 18.2463 37.9932 18.4926 37.8599 18.7057C37.7266 18.9187 37.536 19.09 37.31 19.2C35.2196 20.4579 32.9302 21.3507 30.54 21.84L24.79 33.64C24.79 33.64 22.97 37.78 17.96 36.19C20.06 34.09 22.6 32.19 22.6 28.96C22.6 27.3501 21.9605 25.8062 20.8221 24.6678C19.6838 23.5295 18.1399 22.89 16.53 22.89C14.9201 22.89 13.3762 23.5295 12.2379 24.6678C11.0995 25.8062 10.46 27.3501 10.46 28.96C10.46 33.18 14.62 34.96 16.93 37.89C17.4347 38.6044 17.6775 39.4711 17.6174 40.3437C17.5572 41.2163 17.1979 42.0415 16.6 42.68C13.73 39.84 8.18001 35.05 5.90001 31.91C4.65349 30.3269 3.96764 28.3748 3.95001 26.36C4.05951 24.2161 4.82663 22.1579 6.14707 20.4653C7.4675 18.7727 9.27717 17.5278 11.33 16.9C12.5892 16.5332 13.8997 16.3745 15.21 16.43C17.037 16.5684 18.8117 17.1042 20.41 18C22.86 19.44 24.05 19.06 25.74 17.64C26.74 16.82 27.83 14.15 26.14 13.53C25.5875 13.3497 25.0227 13.2093 24.45 13.11C21.31 12.5 15.82 11.92 13.8 10.77C10.59 8.99998 8.43001 5.34998 9.67001 1.78998Z" fill="url(#paint2_linear_9_33)"/>
<path fill-rule="evenodd" clip-rule="evenodd" d="M22.55 28.99C23.83 22.26 17 15.84 11.76 16.8L12.11 16.72C11.83 16.78 11.56 16.85 11.3 16.93C9.24714 17.5579 7.43747 18.8027 6.11704 20.4953C4.7966 22.1879 4.02948 24.2461 3.91998 26.39C3.95186 28.4107 4.65551 30.3634 5.91998 31.94C8.19998 35.08 13.75 39.87 16.62 42.71C17.2179 42.0715 17.5772 41.2463 17.6373 40.3737C17.6975 39.5011 17.4547 38.6344 16.95 37.92C14.59 35 10.43 33.21 10.43 29C10.43 27.3901 11.0695 25.8462 12.2078 24.7078C13.3462 23.5695 14.8901 22.93 16.5 22.93C18.1098 22.93 19.6538 23.5695 20.7921 24.7078C21.9305 25.8462 22.57 27.3901 22.57 29L22.55 28.99Z" fill="url(#paint3_linear_9_33)"/>
<path fill-rule="evenodd" clip-rule="evenodd" d="M9.66998 1.78998L30.67 13.23L31.27 13.56C31.77 13.95 32.27 14.73 31.62 16.17C30.62 18.32 26.62 20.4 22.01 18.77C23.45 19.19 24.43 18.71 25.69 17.65C26.69 16.83 27.78 14.16 26.09 13.54C25.5374 13.3597 24.9726 13.2193 24.4 13.12C21.26 12.51 15.77 11.93 13.75 10.78C10.59 8.99998 8.42998 5.34998 9.66998 1.78998Z" fill="url(#paint4_linear_9_33)"/>
<path fill-rule="evenodd" clip-rule="evenodd" d="M9.66998 1.78998C11.84 9.78998 25.05 10.45 31.67 13.79L9.66998 1.78998Z" fill="url(#paint5_linear_9_33)"/>
<path fill-rule="evenodd" clip-rule="evenodd" d="M16.9 37.92C14.59 35 10.43 33.21 10.43 29C10.4357 27.5241 10.979 26.1008 11.9582 24.9964C12.9374 23.8921 14.2854 23.1824 15.75 23C13.4318 23.0079 11.2108 23.9323 9.57157 25.5716C7.93233 27.2108 7.00792 29.4318 7.00001 31.75C6.99892 32.3413 7.05924 32.9311 7.18001 33.51C9.09001 35.67 11.85 38.22 14.18 40.38C15.09 41.23 15.93 42.03 16.62 42.71C17.1942 42.0448 17.5441 41.2155 17.62 40.34C17.6747 39.4735 17.4195 38.6157 16.9 37.92Z" fill="url(#paint6_linear_9_33)"/>
<path fill-rule="evenodd" clip-rule="evenodd" d="M22.52 29.71C22.5516 29.4713 22.5683 29.2308 22.57 28.99C23.83 22.26 17 15.84 11.76 16.8C12.8789 16.5296 14.0298 16.4152 15.18 16.46C22.05 16.74 23.97 24.08 22.52 29.71Z" fill="url(#paint7_linear_9_33)"/>
<path fill-rule="evenodd" clip-rule="evenodd" d="M2.26 14.84C2.86031 14.8427 3.43512 15.083 3.85867 15.5084C4.28222 15.9338 4.52001 16.5097 4.52 17.11V19.37H2.26C1.66061 19.37 1.08577 19.1319 0.661939 18.7081C0.238106 18.2843 1.07019e-10 17.7094 1.07019e-10 17.11C-5.82492e-06 16.5097 0.237781 15.9338 0.661328 15.5084C1.08488 15.083 1.65969 14.8427 2.26 14.84Z" fill="url(#paint8_linear_9_33)"/>
</g>
</g>
<defs>
<linearGradient id="paint0_linear_9_33" x1="16.85" y1="6.11" x2="36.49" y2="6.11" gradientUnits="userSpaceOnUse">
<stop stop-color="#FBAA19"/>
<stop offset="1" stop-color="#EF3E23"/>
</linearGradient>
<linearGradient id="paint1_linear_9_33" x1="15.77" y1="31.08" x2="17.31" y2="26.87" gradientUnits="userSpaceOnUse">
<stop stop-color="#F78D1E"/>
<stop offset="1" stop-color="#F37121"/>
</linearGradient>
<linearGradient id="paint2_linear_9_33" x1="3.56001" y1="32.53" x2="27.49" y2="6.87998" gradientUnits="userSpaceOnUse">
<stop stop-color="#FEBE2D"/>
<stop offset="1" stop-color="#F04E23"/>
</linearGradient>
<linearGradient id="paint3_linear_9_33" x1="20.47" y1="17.54" x2="7.22998" y2="37.92" gradientUnits="userSpaceOnUse">
<stop stop-color="#EA4425"/>
<stop offset="1" stop-color="#FDBB27"/>
</linearGradient>
<linearGradient id="paint4_linear_9_33" x1="0.239985" y1="10.57" x2="42.04" y2="10.57" gradientUnits="userSpaceOnUse">
<stop stop-color="#F47920"/>
<stop offset="1" stop-color="#E93825"/>
</linearGradient>
<linearGradient id="paint5_linear_9_33" x1="-21.84" y1="7.77998" x2="63.21" y2="7.77998" gradientUnits="userSpaceOnUse">
<stop stop-color="#FDCA0B"/>
<stop offset="1" stop-color="#F5841F"/>
</linearGradient>
<linearGradient id="paint6_linear_9_33" x1="8.54003" y1="18.07" x2="17.39" y2="48.94" gradientUnits="userSpaceOnUse">
<stop stop-color="#E73C25"/>
<stop offset="1" stop-color="#FAA21B"/>
</linearGradient>
<linearGradient id="paint7_linear_9_33" x1="-51.37" y1="23.08" x2="74.88" y2="23.08" gradientUnits="userSpaceOnUse">
<stop stop-color="#FDBA12"/>
<stop offset="1" stop-color="#F7921E"/>
</linearGradient>
<linearGradient id="paint8_linear_9_33" x1="0.08" y1="16.72" x2="4.81" y2="17.56" gradientUnits="userSpaceOnUse">
<stop stop-color="#FEBE2D"/>
<stop offset="1" stop-color="#F04E23"/>
</linearGradient>
<clipPath id="clip0_9_33">
<rect width="43" height="43" fill="white"/>
</clipPath>
</defs>
</svg>
