<svg width="41" height="51" viewBox="0 0 41 51" fill="none" xmlns="http://www.w3.org/2000/svg">
<g clip-path="url(#clip0_9_23)">
<path d="M66.0556 45.2769C63.3876 45.2577 60.7648 44.5468 58.417 43.2066C55.9817 41.8773 53.8698 39.9711 52.2459 37.6366C52.1401 37.4985 52.0617 37.3394 52.0152 37.1686C51.9687 36.9978 51.9552 36.8189 51.9753 36.6425C51.9955 36.4661 52.049 36.2958 52.1326 36.1416C52.2162 35.9875 52.3282 35.8527 52.462 35.7452L55.4144 32.9875C55.6538 32.7592 55.9661 32.6355 56.2884 32.6414H56.503C56.6916 32.672 56.872 32.7441 57.0325 32.8531C57.193 32.9621 57.3301 33.1055 57.4349 33.274C58.4327 34.969 59.7987 36.3874 61.4195 37.4114C62.9701 38.3885 64.7431 38.902 66.549 38.902C68.5131 38.902 69.9885 38.4962 70.9142 37.6366C71.8226 36.83 72.3097 35.616 72.2252 34.3672C72.2729 33.7056 72.1688 33.0416 71.9218 32.4317C71.6747 31.8218 71.292 31.2841 70.8061 30.8642C69.6581 29.945 67.802 29.0837 65.2381 28.2805C57.637 26.3277 53.8356 22.5382 53.8356 16.9567C53.8356 13.5133 54.9258 10.817 57.1107 8.92386C59.2972 7.03408 62.1337 6.16786 65.7393 6.16786C68.1719 6.0904 70.5874 6.62194 72.7888 7.71913C74.9903 8.81633 76.9154 10.4481 78.4072 12.4815C78.6221 12.7668 78.7249 13.1286 78.6943 13.4918C78.6636 13.8551 78.502 14.192 78.2428 14.4325L75.3734 16.9633C75.1368 17.1966 74.8227 17.3216 74.4994 17.3111H74.3349C74.1506 17.2924 73.9723 17.2313 73.8126 17.132C73.653 17.0328 73.5159 16.8977 73.4108 16.7364C72.5309 15.3906 71.3743 14.2729 70.0277 13.467C68.6891 12.7594 67.209 12.4032 65.7126 12.4285C64.2272 12.3663 62.7595 12.7871 61.5072 13.6342C61.0577 13.9721 60.6934 14.4212 60.446 14.9423C60.1986 15.4635 60.0758 16.0408 60.0882 16.6238C60.0302 17.8163 60.5173 18.9674 61.3991 19.721C62.4391 20.6402 64.2952 21.3855 66.9108 22.0728C70.4647 23.1113 73.2448 24.4827 75.2653 26.2681C77.3954 28.2192 78.4902 30.9305 78.4902 34.3605C78.4996 36.3863 77.9272 38.3673 76.8488 40.0415C75.7483 41.7449 74.2104 43.0804 72.4163 43.8906C70.4248 44.863 68.2484 45.3373 66.0556 45.2769ZM94.3205 45.3895C92.0155 45.45 89.7422 44.8121 87.7688 43.5511C85.854 42.3479 84.3013 40.5951 83.2908 38.4962C82.1973 36.2641 81.6533 33.7766 81.7089 31.2634C81.6471 28.7685 82.1918 26.2987 83.2908 24.0901C84.305 21.9952 85.8577 20.2453 87.7703 19.0419C89.7431 17.834 91.983 17.1997 94.2625 17.2035C96.1705 17.1585 98.0553 17.6524 99.7225 18.6345C101.323 19.6302 102.73 20.9367 103.872 22.4852C104.08 22.7772 104.174 23.1431 104.134 23.5067C104.094 23.8703 103.922 24.2033 103.655 24.4363L101.256 26.4337C101.015 26.6164 100.728 26.7185 100.432 26.7269H100.216C100.04 26.7004 99.8712 26.6351 99.7207 26.5352C99.5701 26.4354 99.4411 26.3032 99.3419 26.1472C98.8157 25.2374 98.0776 24.4854 97.1982 23.9632C96.3188 23.441 95.3275 23.1659 94.3189 23.1643C93.129 23.1673 91.9613 23.5051 90.9358 24.1431C89.9089 24.8161 89.0919 25.7935 88.5864 26.9538C88.0193 28.3102 87.7263 29.777 87.7263 31.26C87.7263 32.7431 88.0193 34.2099 88.5864 35.5663C89.0891 36.7422 89.9052 37.7393 90.9358 38.4366C91.9385 39.1294 93.1225 39.4697 94.3189 39.4088C95.411 39.4762 96.5012 39.247 97.4859 38.743C98.3787 38.2295 99.1618 37.5273 99.7789 36.6776C99.9917 36.4022 100.294 36.2202 100.626 36.1673C100.959 36.1143 101.298 36.1941 101.579 36.3911L104.15 38.2825C104.293 38.388 104.414 38.5222 104.508 38.6775C104.601 38.8327 104.665 39.006 104.695 39.1872C104.725 39.3685 104.721 39.5542 104.683 39.7338C104.645 39.9134 104.573 40.0832 104.473 40.2336C104.474 40.2412 104.474 40.249 104.472 40.2564C104.47 40.2639 104.466 40.2707 104.461 40.2766C104.457 40.2824 104.451 40.2871 104.444 40.2902C104.437 40.2934 104.43 40.295 104.423 40.2949C103.236 41.839 101.744 43.091 100.053 43.9635C98.2746 44.9083 96.3107 45.3968 94.3205 45.3895ZM118.833 45.3895C116.577 45.4423 114.353 44.8241 112.413 43.6053C110.474 42.3866 108.897 40.6163 107.862 38.4962C106.809 36.2584 106.261 33.7928 106.261 31.2932C106.261 28.7936 106.809 26.328 107.862 24.0901C108.878 21.9785 110.436 20.2124 112.357 18.9943C114.279 17.7763 116.486 17.1556 118.726 17.2035C120.524 17.1911 122.3 17.622 123.913 18.4622C124.455 18.7537 124.966 19.1015 125.441 19.5007V19.3814C125.446 19.0162 125.586 18.6678 125.831 18.4102C126.076 18.1525 126.406 18.006 126.752 18.0018H130.033C130.753 18.0134 131.333 18.6245 131.344 19.3814V43.1519C131.338 43.5162 131.197 43.8635 130.952 44.1197C130.707 44.3759 130.377 44.5208 130.033 44.5233H126.759C126.415 44.5212 126.084 44.3766 125.839 44.1203C125.594 43.864 125.453 43.5165 125.447 43.1519V43.0923C124.952 43.4385 124.465 43.7581 123.971 44.0695C122.392 44.9612 120.623 45.4154 118.833 45.3895ZM118.726 23.1709C117.551 23.1657 116.398 23.5045 115.395 24.1498C114.396 24.8572 113.586 25.8253 113.045 26.9604C112.457 28.3088 112.16 29.7786 112.176 31.2634C112.137 32.7695 112.434 34.2642 113.044 35.6259C113.545 36.8045 114.362 37.8023 115.393 38.4962C116.375 39.1918 117.543 39.5363 118.726 39.475C119.933 39.4705 121.119 39.1331 122.166 38.4962C123.196 37.8037 124.011 36.8054 124.509 35.6259C125.078 34.2712 125.372 32.8053 125.372 31.323C125.372 29.8406 125.078 28.3748 124.509 27.02C123.99 25.87 123.178 24.8951 122.166 24.2044C121.154 23.477 119.948 23.1145 118.726 23.1709ZM136.964 6.36661H140.237C140.958 6.37821 141.539 6.98936 141.55 7.74627V43.1652C141.544 43.5301 141.403 43.8781 141.158 44.1354C140.914 44.3926 140.584 44.5389 140.239 44.5432H136.964C136.618 44.5393 136.288 44.3932 136.043 44.1359C135.798 43.8786 135.657 43.5303 135.651 43.1652V7.74627C135.645 7.56303 135.675 7.38043 135.739 7.20997C135.803 7.03951 135.899 6.88489 136.022 6.75583C136.145 6.62649 136.292 6.52523 136.454 6.45829C136.616 6.39134 136.79 6.36014 136.964 6.36661ZM194.339 44.5829C194.055 44.5941 193.776 44.5044 193.547 44.3281C193.317 44.1519 193.15 43.8993 193.072 43.6107L188.758 29.4315L184.122 43.6637C184.035 43.9426 183.864 44.1835 183.636 44.3496C183.407 44.5157 183.132 44.5976 182.855 44.5829H179.58C179.296 44.5947 179.017 44.5052 178.787 44.3289C178.558 44.1525 178.39 43.8996 178.313 43.6107L170.833 19.8419C170.737 19.53 170.748 19.1926 170.864 18.8885C170.98 18.5843 171.192 18.3327 171.465 18.1773C171.687 18.0661 171.929 18.0074 172.175 18.0051H175.641C175.925 17.994 176.204 18.0844 176.434 18.2616C176.664 18.4389 176.83 18.6928 176.906 18.9823L181.442 33.7958L186.041 18.964C186.129 18.6813 186.299 18.4348 186.526 18.259C186.753 18.0832 187.027 17.9869 187.308 17.9835H190.533C190.818 17.9729 191.097 18.0638 191.327 18.2416C191.557 18.4195 191.724 18.6739 191.8 18.964L196.234 33.6152L200.712 18.964C200.8 18.6812 200.97 18.4345 201.197 18.2587C201.424 18.0828 201.698 17.9866 201.979 17.9835H205.095C205.281 18.0001 205.464 18.0415 205.64 18.1045C205.95 18.2346 206.201 18.4843 206.344 18.8032C206.486 19.122 206.509 19.4862 206.407 19.822L198.983 43.6057C198.894 43.8875 198.724 44.1327 198.497 44.3071C198.27 44.4815 197.997 44.5762 197.716 44.578L194.339 44.5846V44.5829ZM219.728 45.3895C217.473 45.4377 215.251 44.8177 213.312 43.5994C211.373 42.3812 209.795 40.6135 208.757 38.4962C207.706 36.2574 207.16 33.7922 207.16 31.2932C207.16 28.7941 207.706 26.3289 208.757 24.0901C209.777 21.9696 211.344 20.1977 213.277 18.9791C215.209 17.7605 217.429 17.1449 219.678 17.2035C221.464 17.2091 223.222 17.6657 224.808 18.5351C225.348 18.8249 225.86 19.1711 226.335 19.5686V19.4543C226.339 19.0832 226.477 18.7279 226.721 18.4607C226.964 18.1936 227.295 18.0348 227.646 18.0167H230.979C231.698 18.0266 232.279 18.6378 232.29 19.3947V43.1652C232.283 43.5293 232.142 43.8764 231.898 44.1325C231.653 44.3886 231.323 44.5336 230.979 44.5365H227.704C227.359 44.534 227.029 44.3892 226.784 44.1331C226.538 43.8769 226.398 43.5296 226.391 43.1652V43.1055C225.918 43.463 225.426 43.7899 224.916 44.0844C223.314 44.964 221.533 45.4123 219.728 45.3895ZM219.678 23.1709C218.503 23.1654 217.349 23.5042 216.345 24.1498C215.345 24.8558 214.536 25.8243 213.996 26.9604C213.38 28.299 213.08 29.7754 213.122 31.2634C213.084 32.7705 213.383 34.2628 213.996 35.6259C214.495 36.8019 215.313 37.8006 216.345 38.4962C217.327 39.1937 218.496 39.537 219.678 39.475C220.868 39.4786 222.037 39.1409 223.06 38.4979C224.092 37.8037 224.909 36.8054 225.411 35.6259C225.979 34.2711 226.273 32.8053 226.273 31.323C226.273 29.8407 225.979 28.3749 225.411 27.02C224.905 25.8584 224.087 24.8793 223.06 24.2044C222.07 23.4778 220.882 23.1147 219.678 23.1709ZM165.899 36.2056C165.597 35.9818 165.226 35.8867 164.861 35.9396C164.495 35.9924 164.162 36.1891 163.928 36.4905C163.342 37.2904 162.62 37.9683 161.8 38.4896C160.517 39.1813 159.09 39.5181 157.651 39.4684C156.781 39.5154 155.912 39.3541 155.109 38.9965C154.307 38.6389 153.591 38.0942 153.015 37.4031C152.104 36.2666 151.482 34.903 151.209 33.4413H168.311C168.64 33.4435 168.958 33.3144 169.201 33.0799C169.444 32.8455 169.595 32.5227 169.623 32.176C169.67 31.6426 169.688 31.106 169.673 30.5694C169.701 28.2258 169.158 25.9141 168.096 23.8566C167.064 21.841 165.533 20.1608 163.665 18.9967C161.798 17.8327 159.666 17.2287 157.499 17.2498C155.234 17.2392 153.009 17.8743 151.057 19.0883C149.155 20.2938 147.617 22.0471 146.623 24.1431C145.561 26.3664 145.018 28.826 145.039 31.3164C144.988 33.8291 145.531 36.3156 146.621 38.5492C147.651 40.6342 149.2 42.3821 151.101 43.6041C153.095 44.8106 155.353 45.4423 157.651 45.4359C160.023 45.4966 162.372 44.9241 164.48 43.7714C166.023 42.8592 167.377 41.6292 168.463 40.1541C168.581 39.9926 168.668 39.808 168.718 39.6108C168.769 39.4137 168.782 39.2079 168.756 39.0054C168.731 38.803 168.668 38.6078 168.571 38.4311C168.475 38.2544 168.345 38.0998 168.192 37.9761C168.184 37.9764 168.177 37.975 168.17 37.9721C168.163 37.9692 168.156 37.9648 168.151 37.9593C168.146 37.9537 168.141 37.9471 168.138 37.9397C168.135 37.9324 168.134 37.9245 168.134 37.9165L165.899 36.2056ZM153.394 24.8355C153.948 24.2626 154.607 23.815 155.33 23.5198C156.054 23.2245 156.826 23.0878 157.601 23.1179C159.399 23.1179 160.818 23.5701 161.8 24.6085C162.617 25.477 163.185 26.5719 163.44 27.767H151.569C151.952 26.6525 152.577 25.6485 153.394 24.8355ZM258.982 18.6361C258.851 18.462 258.686 18.3203 258.498 18.2213C258.31 18.1222 258.103 18.0682 257.893 18.063H254.783C254.219 18.063 253.716 18.4274 253.516 18.9823L247.13 36.2984L241.069 18.9011C240.958 18.644 240.78 18.4262 240.555 18.274C240.33 18.1218 240.068 18.0416 239.801 18.0432H236.362C236.144 18.041 235.93 18.098 235.739 18.2088C235.548 18.3196 235.387 18.4804 235.272 18.6759C235.146 18.8687 235.069 19.0926 235.05 19.326C235.03 19.5593 235.068 19.7941 235.159 20.0075L244.052 44.6972C243.906 45.6107 243.437 46.4315 242.741 46.9944C241.924 47.5675 240.34 47.6271 239.466 47.6602C239.102 47.678 238.758 47.8424 238.504 48.1199C238.251 48.3974 238.108 48.7668 238.104 49.1525V51.5044C238.102 51.7015 238.138 51.8969 238.208 52.0793C238.279 52.2616 238.384 52.427 238.516 52.566C238.648 52.7049 238.805 52.8144 238.978 52.8881C239.151 52.9618 239.336 52.9981 239.523 52.995C240.885 52.995 243.127 53.1093 244.876 52.1901C248.474 50.191 248.967 47.7132 250.006 44.9026L259.121 19.875C259.177 19.6691 259.194 19.4534 259.17 19.2407C259.146 19.028 259.082 18.8224 258.982 18.6361ZM18.6996 39.3757C17.9239 39.3832 17.1771 39.0646 16.6235 38.49C16.0699 37.9154 15.7547 37.1319 15.7472 36.3116C15.7458 35.9055 15.82 35.5031 15.9656 35.1274C16.1112 34.7516 16.3254 34.4099 16.5959 34.1217C16.8665 33.8335 17.188 33.6044 17.5422 33.4476C17.8965 33.2908 18.2765 33.2093 18.6605 33.2078H22.266C23.3154 33.2078 24.1659 32.3134 24.1659 31.2104V23.5436C24.1659 21.8525 25.4706 20.4795 27.0791 20.4795C28.6893 20.4795 29.9924 21.8525 29.9924 23.5436V35.6127C29.942 36.5506 29.5816 37.4399 28.9741 38.1253C28.3666 38.8107 27.5506 39.2486 26.6688 39.3624H18.6996V39.3757Z" fill="black"/>
<path d="M18.6997 39.2084H26.6563C27.4993 39.1004 28.2793 38.6811 28.8587 38.0245C29.438 37.3679 29.7796 36.5162 29.8233 35.6193V23.5452C29.8233 21.9437 28.589 20.6468 27.0666 20.6468C25.5458 20.6468 24.3116 21.9437 24.3116 23.5452V31.2104C24.3066 31.7849 24.0879 32.3342 23.7027 32.7394C23.3175 33.1445 22.7968 33.3729 22.2535 33.3751H18.6621C17.9331 33.376 17.2341 33.6818 16.7176 34.2257C16.2011 34.7697 15.9092 35.5077 15.9054 36.2785V36.3182C15.9145 37.093 16.2138 37.8323 16.7376 38.3741C17.2614 38.9159 17.967 39.2159 18.6997 39.2084ZM13.9304 30.3574C13.5488 30.3585 13.1708 30.2801 12.8179 30.1267C12.465 29.9733 12.1442 29.7479 11.8736 29.4634C11.6031 29.1789 11.3882 28.8408 11.2413 28.4684C11.0943 28.0961 11.0181 27.6968 11.0171 27.2933V15.2209C11.0648 14.2824 11.423 13.3916 12.0292 12.7042C12.6354 12.0169 13.4509 11.5769 14.3329 11.4612H22.3083C23.0809 11.4602 23.8229 11.7798 24.375 12.3512C24.9271 12.9226 25.2451 13.7003 25.2607 14.517C25.2686 15.3369 24.9663 16.1269 24.4196 16.7099C23.8715 17.2946 23.1259 17.6242 22.3459 17.6275H18.7357C17.6863 17.6275 16.8358 18.5218 16.8358 19.6266V27.2917C16.8358 28.9811 15.5358 30.3524 13.9288 30.3557L13.9304 30.3574Z" fill="black"/>
<path d="M22.3099 11.6351H14.3533C13.5093 11.7416 12.7283 12.1607 12.1486 12.8179C11.5689 13.4752 11.228 14.3282 11.1863 15.2259V27.2999C11.1629 27.8247 11.275 28.3463 11.5106 28.8088C11.7463 29.2712 12.0965 29.6572 12.5239 29.9251C12.952 30.1943 13.4409 30.3363 13.939 30.3363C14.4371 30.3363 14.926 30.1943 15.3541 29.9251C16.2265 29.3752 16.7402 28.3682 16.6917 27.2999V19.6282C16.6901 19.0535 16.9063 18.5019 17.2931 18.0978C17.4848 17.8967 17.7122 17.7376 17.9621 17.6296C18.2121 17.5216 18.4797 17.4668 18.7498 17.4684H22.3475C23.0751 17.4676 23.7729 17.1629 24.2892 16.6207C24.8054 16.0785 25.0983 15.3427 25.1041 14.5733V14.5319C25.0885 13.7588 24.7875 13.0228 24.2652 12.4814C23.743 11.94 23.0412 11.6363 22.3099 11.6351Z" fill="black"/>
<path d="M23.6285 6.2133C26.6855 6.20836 29.6193 7.48839 31.7858 9.77228C32.8545 10.8992 33.7016 12.2393 34.2779 13.7152C34.8543 15.1911 35.1485 16.7733 35.1435 18.3704V41.6934C35.0092 42.4841 34.6419 43.2094 34.0943 43.7654C33.5466 44.3214 32.8468 44.6795 32.0952 44.7884H17.37C14.3188 44.7917 11.3905 43.5157 9.22524 41.2394C8.15744 40.1157 7.31018 38.7794 6.73228 37.3074C6.15437 35.8355 5.85726 34.257 5.85804 32.6629V9.98516C5.85715 8.9855 6.22877 8.02583 6.89217 7.31462C7.55556 6.6034 8.45717 6.19808 9.40113 6.18669L23.6285 6.2133ZM23.6787 4.28154e-05H9.17812C4.10848 0.0116844 0.00314104 4.34067 0 9.67749V32.7776C0.000395611 35.1751 0.448985 37.5487 1.3199 39.7617C2.19082 41.9747 3.46683 43.9832 5.07435 45.6715C8.33269 49.0935 12.7385 51.0094 17.3275 51H32.6605C37.0297 50.6291 40.532 47.0369 41 42.4468V18.1908C40.9971 15.7958 40.5467 13.4252 39.6747 11.2154C38.8028 9.00559 37.5265 7.00036 35.9194 5.31524C32.6632 1.90052 28.263 -0.0104294 23.6803 4.28154e-05H23.6787Z" fill="black"/>
</g>
<defs>
<clipPath id="clip0_9_23">
<rect width="260" height="53" fill="white"/>
</clipPath>
</defs>
</svg>
